<?xml version="1.0" encoding="UTF-8"?>
<svg xmlns="http://www.w3.org/2000/svg"
     width="128"
     height="128"
     viewBox="0 0 128 128">
  <g fill="black" stroke="none" stroke-width="1" fill-rule="evenodd">
    <path d="M 64 13.5 C 61.86562525418905 15.63437474581095 52 14.833333333333334 55 14.5 C 61.22397601887938 13.808447109013402 31.37224813381 22.951100746475998 50 15.5 C 55.536365323582665 13.285453870566934 29.11071462990315 26.91327469233176 34 23.5 C 38.0585854487619 20.666647894260556 20.162536922479227 37.65531670395132 23.5 34 C 26.87852378488712 30.299712045123634 14.179793945620656 50.72538635196127 21.5 37 C 23.745932715808056 32.788876157859896 13.911580369336578 54.5005222868797 15.5 50 C 23.35386294898823 27.747388311200016 13.666049166712394 62.50555749958845 14.5 55 C 15.16258915644908 49.03669759195829 15.16258915644908 78.96330240804171 14.5 73 C 13.808447109013407 66.77602398112067 22.951100746475984 96.62775186618995 15.5 78 C 13.285453870566934 72.46363467641733 26.91327469233176 98.88928537009684 23.5 94 C 20.666647894260556 89.9414145512381 37.65531670395132 107.83746307752077 34 104.5 C 30.2997120451237 101.12147621511295 50.72538635196108 113.82020605437924 37 106.5 C 32.788876157859896 104.25406728419195 54.5005222868797 114.08841963066342 50 112.5 C 27.747388311199916 104.64613705101173 62.505557499588484 114.33395083328762 55 113.5 C -91.91168824543075 97.17647908384103 88.58249156101932 114.5 64 114.5 C 39.41750843898103 114.5 219.9116882454289 97.17647908384123 73 113.5 C 66.77602398112089 114.19155289098657 96.62775186618936 105.04889925352427 78 112.5 C 72.46363467641733 114.71454612943306 98.88928537009684 101.08672530766823 94 104.5 C 89.9414145512381 107.33335210573944 107.83746307752077 90.34468329604867 104.5 94 C 101.12147621511295 97.7002879548763 113.82020605437924 77.27461364803892 106.5 91 C 104.25406728419195 95.2111238421401 114.08841963066342 73.4994777131203 112.5 78 C 104.64613705101172 100.2526116888001 114.33395083328762 65.4944425004115 113.5 73 C 97.176479083841 219.91168824543095 114.5 39.41750843898063 114.5 64 C 114.5 88.58249156101898 97.17647908384124 -91.91168824542879 113.5 55 C 114.19155289098657 61.223976018879156 105.04889925352424 31.372248133810615 112.5 50 C 114.71454612943306 55.536365323582665 101.08672530766823 29.11071462990315 104.5 34 C 107.33335210573944 38.0585854487619 90.34468329604867 20.162536922479227 94 23.5 C 97.70028795487637 26.87852378488712 77.27461364803872 14.179793945620656 91 21.5 C 95.2111238421401 23.745932715808056 73.4994777131203 13.911580369336578 78 15.5 C 79.25732044477719 15.943760156980183 72.69255909907878 15.238511819815754 74 15.5 C 77.33333333333333 16.166666666666668 66.40370085030932 11.096299149690674 64 13.5 Z" />
    <path d="M 57 34.5 C 55.50928801500014 35.99071198499986 49.06227213674607 37.3304547985374 51 36.5 C 51.86657824482624 36.1286093236459 48.21553545944727 39.02297636036849 49 38.5 C 50.24034734589208 37.67310176940528 43.81584125800238 41.405533155645244 45 40.5 C 46.685087431160476 39.211403729112575 39.15669979321652 46.64181136384648 40.5 45 C 42.387950326582654 42.69250515639897 35.557190958417934 55.82842712474619 36.5 53 C 36.97140452079103 51.58578643762691 34.335378400558405 58.48159439497439 34.5 57 C 35.015347121682616 52.36187590485645 34.81042204911095 75.65633073666417 34.5 71 C 34.46864263772055 70.5296395658082 35.64907119849999 72.44721359549996 35.5 72 C 34.96251615011343 70.38754845034029 37.16953406341199 78.5622461479613 36.5 77 C 34.5499572657377 72.44990028672132 45.99059559294489 90.18000962154332 40.5 83 C 39.211403729112575 81.31491256883952 46.64181136384648 88.84330020678348 45 87.5 C 42.69250515639897 85.61204967341735 55.82842712474619 92.44280904158207 53 91.5 C 51.58578643762691 91.02859547920897 58.48159439497439 93.6646215994416 57 93.5 C 52.36187590485645 92.98465287831738 75.65633073666417 93.18957795088906 71 93.5 C 70.5296395658082 93.53135736227945 72.44721359549996 92.35092880150002 72 92.5 C 70.38754845034029 93.03748384988657 78.5622461479613 90.83046593658801 77 91.5 C 72.44990028672112 93.45004273426238 90.18000962154362 82.00940440705487 83 87.5 C 79.4229388701022 90.2353996875689 93.73415599085045 73.0902270160117 91.5 77 C 90.02620197857487 79.57914653749395 94.4973701640114 62.02366852389744 93.5 71 C 92.98465287831738 75.63812409514355 93.18957795088906 52.343669263335826 93.5 57 C 93.69832137243624 59.97482058654365 87.84620353881056 46.519305308215834 89.5 49 C 90.32689823059472 50.24034734589208 86.59446684435476 43.81584125800238 87.5 45 C 88.93891469425098 46.88165767709744 80.02905723456631 39.18603815637754 82 40.5 C 83.77590713547926 41.68393809031951 75.146843764226 35.44105357955772 77 36.5 C 79.5791465374941 37.973798021425196 62.02366852389713 33.50262983598857 71 34.5 C 75.63812409514355 35.015347121682616 60.299831645537225 31.20016835446278 57 34.5 Z" />
  </g>
</svg>