<?xml version="1.0" encoding="UTF-8"?>
<svg xmlns="http://www.w3.org/2000/svg" width="256" height="256" viewBox="0 0 256 256">
  <path d="M 255.5 0 L 255 255.5 L -0.5 255 L 0 -0.5 L 255.5 0 Z" fill="#ffffff" stroke="#ffffff" stroke-width="1.25" stroke-linejoin="round" stroke-linecap="round" fill-rule="evenodd" />
  <path d="M 218 25.5 L 225 47.5 L 239.5 36 L 218 25.5 Z" fill="#ffffff" stroke="#ffffff" stroke-width="1.25" stroke-linejoin="round" stroke-linecap="round" fill-rule="evenodd" />
  <path d="M 141 26.5 L 135 28.5 L 128.5 34 L 125.5 39 L 124.5 50 L 126.5 56 L 132 62.5 L 137 65.5 L 148 66.5 L 154 64.5 L 160.5 59 L 163.5 54 L 164.5 43 L 162.5 37 L 157 30.5 L 152 27.5 L 141 26.5 Z" fill="#ffffff" stroke="#ffffff" stroke-width="1.25" stroke-linejoin="round" stroke-linecap="round" fill-rule="evenodd" />
  <path d="M 173 37.5 L 171 60.5 L 184.5 49 L 173 37.5 Z" fill="#ffffff" stroke="#ffffff" stroke-width="1.25" stroke-linejoin="round" stroke-linecap="round" fill-rule="evenodd" />
  <path d="M 104 56.5 L 95.5 63 L 93.5 67 L 93.5 74 L 100 82.5 L 104 84.5 L 111 84.5 L 119.5 78 L 121.5 74 L 121.5 67 L 115 58.5 L 111 56.5 L 104 56.5 Z" fill="#ffffff" stroke="#ffffff" stroke-width="1.25" stroke-linejoin="round" stroke-linecap="round" fill-rule="evenodd" />
  <path d="M 185 63.5 L 179 66.5 L 174.5 72 L 174 83.5 L 163 85.5 L 158 89.5 L 154.5 79 L 149 73.5 L 142 70.5 L 135 70.5 L 128 73.5 L 122.5 79 L 119.5 86 L 119.5 93 L 122.5 100 L 128 105.5 L 135 108.5 L 142 108.5 L 149 105.5 L 151.5 118 L 163 129.5 L 169 131.5 L 184 129.5 L 195.5 118 L 197.5 103 L 192.5 93 L 198 90.5 L 203.5 82 L 203.5 75 L 200.5 69 L 195 64.5 L 185 63.5 Z" fill="#ffffff" stroke="#ffffff" stroke-width="1.25" stroke-linejoin="round" stroke-linecap="round" fill-rule="evenodd" />
  <path d="M 210 63.5 L 209.5 69 L 205.5 75 L 205.5 82 L 207.5 86 L 215 91.5 L 222 91.5 L 226 89.5 L 231.5 82 L 231.5 75 L 229.5 71 L 219 63.5 L 210 63.5 Z" fill="#ffffff" stroke="#ffffff" stroke-width="1.25" stroke-linejoin="round" stroke-linecap="round" fill-rule="evenodd" />
  <path d="M 23 69.5 L 15.5 75 L 14.5 83 L 20 90.5 L 28 91.5 L 35.5 86 L 36.5 78 L 31 70.5 L 23 69.5 Z" fill="#ffffff" stroke="#ffffff" stroke-width="1.25" stroke-linejoin="round" stroke-linecap="round" fill-rule="evenodd" />
  <path d="M 29 96.5 L 32.5 110 L 34.5 110 L 37 104.5 L 40 111.5 L 48.5 98 L 34 96.5 L 34 99.5 L 29 96.5 Z" fill="#ffffff" stroke="#ffffff" stroke-width="1.25" stroke-linejoin="round" stroke-linecap="round" fill-rule="evenodd" />
  <path d="M 121 128.5 L 125 138.5 L 137.5 133 L 121 128.5 Z" fill="#ffffff" stroke="#ffffff" stroke-width="1.25" stroke-linejoin="round" stroke-linecap="round" fill-rule="evenodd" />
  <path d="M 163 132.5 L 169 143.5 L 172.5 134 L 163 132.5 Z" fill="#ffffff" stroke="#ffffff" stroke-width="1.25" stroke-linejoin="round" stroke-linecap="round" fill-rule="evenodd" />
  <path d="M 108 140.5 L 102.5 145 L 101.5 152 L 106 157.5 L 113 158.5 L 118.5 154 L 119.5 147 L 115 141.5 L 108 140.5 Z" fill="#ffffff" stroke="#ffffff" stroke-width="1.25" stroke-linejoin="round" stroke-linecap="round" fill-rule="evenodd" />
  <path d="M 56 175.5 L 55.5 199 L 76 199.5 L 76.5 176 L 56 175.5 Z" fill="#ffffff" stroke="#ffffff" stroke-width="1.25" stroke-linejoin="round" stroke-linecap="round" fill-rule="evenodd" />
  <path d="M 223 201.5 L 216 204.5 L 210.5 210 L 207.5 217 L 208.5 227 L 226 246.5 L 231 248.5 L 241 247.5 L 246 244.5 L 250.5 238 L 250.5 225 L 242.5 210 L 237 204.5 L 230 201.5 L 223 201.5 Z" fill="#ffffff" stroke="#ffffff" stroke-width="1.25" stroke-linejoin="round" stroke-linecap="round" fill-rule="evenodd" />
  <path d="M 154 205.5 L 148.5 210 L 147.5 217 L 152 222.5 L 159 223.5 L 164.5 219 L 165.5 212 L 161 206.5 L 154 205.5 Z" fill="#ffffff" stroke="#ffffff" stroke-width="1.25" stroke-linejoin="round" stroke-linecap="round" fill-rule="evenodd" />
  <path d="M 169 83.5 L 163 85.5 L 157.5 90 L 154.5 100 L 149.5 105 L 149.5 112 L 153.5 121 L 160 127.5 L 169 131.5 L 178 131.5 L 187 127.5 L 193.5 121 L 197.5 112 L 197.5 103 L 193.5 94 L 187 87.5 L 178 83.5 L 169 83.5 Z" fill="#dfb220" stroke="#dfb220" stroke-width="1.25" stroke-linejoin="round" stroke-linecap="round" fill-rule="evenodd" />
  <path d="M 141 26.5 L 135 28.5 L 128.5 34 L 125.5 39 L 124.5 50 L 126.5 56 L 132 62.5 L 137 65.5 L 148 66.5 L 154 64.5 L 160.5 59 L 163.5 54 L 164.5 43 L 162.5 37 L 157 30.5 L 152 27.5 L 141 26.5 Z" fill="#df3f20" stroke="#df3f20" stroke-width="1.25" stroke-linejoin="round" stroke-linecap="round" fill-rule="evenodd" />
  <path d="M 135 70.5 L 128 73.5 L 122.5 79 L 119.5 86 L 119.5 93 L 122.5 100 L 128 105.5 L 135 108.5 L 142 108.5 L 149 105.5 L 154.5 100 L 157.5 93 L 157.5 86 L 154.5 79 L 149 73.5 L 142 70.5 L 135 70.5 Z" fill="#20dfc5" stroke="#20dfc5" stroke-width="1.25" stroke-linejoin="round" stroke-linecap="round" fill-rule="evenodd" />
  <path d="M 223 201.5 L 216 204.5 L 210.5 210 L 207.5 217 L 207.5 224 L 210.5 231 L 216 236.5 L 223 239.5 L 230 239.5 L 237 236.5 L 242.5 231 L 245.5 224 L 245.5 217 L 242.5 210 L 237 204.5 L 230 201.5 L 223 201.5 Z" fill="#d3df20" stroke="#d3df20" stroke-width="1.25" stroke-linejoin="round" stroke-linecap="round" fill-rule="evenodd" />
  <path d="M 185 63.5 L 179 66.5 L 174.5 72 L 173.5 82 L 184 85.5 L 192 92.5 L 195 92.5 L 202.5 85 L 202.5 72 L 195 64.5 L 185 63.5 Z" fill="#9f20df" stroke="#9f20df" stroke-width="1.25" stroke-linejoin="round" stroke-linecap="round" fill-rule="evenodd" />
  <path d="M 104 56.5 L 95.5 63 L 93.5 67 L 93.5 74 L 100 82.5 L 104 84.5 L 111 84.5 L 119.5 78 L 121.5 74 L 121.5 67 L 115 58.5 L 111 56.5 L 104 56.5 Z" fill="#df203a" stroke="#df203a" stroke-width="1.25" stroke-linejoin="round" stroke-linecap="round" fill-rule="evenodd" />
  <path d="M 215 65.5 L 207.5 71 L 205.5 75 L 205.5 82 L 211 89.5 L 215 91.5 L 222 91.5 L 229.5 86 L 231.5 82 L 231.5 75 L 226 67.5 L 222 65.5 L 215 65.5 Z" fill="#20df8b" stroke="#20df8b" stroke-width="1.25" stroke-linejoin="round" stroke-linecap="round" fill-rule="evenodd" />
  <path d="M 56 175.5 L 55.5 199 L 76 199.5 L 76.5 176 L 56 175.5 Z" fill="#df2074" stroke="#df2074" stroke-width="1.25" stroke-linejoin="round" stroke-linecap="round" fill-rule="evenodd" />
  <path d="M 23 69.5 L 15.5 75 L 14.5 83 L 20 90.5 L 28 91.5 L 35.5 86 L 36.5 78 L 31 70.5 L 23 69.5 Z" fill="#20c0df" stroke="#20c0df" stroke-width="1.25" stroke-linejoin="round" stroke-linecap="round" fill-rule="evenodd" />
  <path d="M 246 218.5 L 244.5 227 L 237 236.5 L 230 239.5 L 219.5 239 L 223 244.5 L 231 248.5 L 238 248.5 L 247.5 243 L 251.5 235 L 251.5 228 L 246 218.5 Z" fill="#204ddf" stroke="#204ddf" stroke-width="1.25" stroke-linejoin="round" stroke-linecap="round" fill-rule="evenodd" />
  <path d="M 108 140.5 L 102.5 145 L 101.5 152 L 106 157.5 L 113 158.5 L 118.5 154 L 119.5 147 L 115 141.5 L 108 140.5 Z" fill="#d820df" stroke="#d820df" stroke-width="1.25" stroke-linejoin="round" stroke-linecap="round" fill-rule="evenodd" />
  <path d="M 154 205.5 L 148.5 210 L 147.5 217 L 152 222.5 L 159 223.5 L 164.5 219 L 165.5 212 L 161 206.5 L 154 205.5 Z" fill="#df7820" stroke="#df7820" stroke-width="1.25" stroke-linejoin="round" stroke-linecap="round" fill-rule="evenodd" />
  <path d="M 218 25.5 L 225 47.5 L 239.5 36 L 218 25.5 Z" fill="#9adf20" stroke="#9adf20" stroke-width="1.25" stroke-linejoin="round" stroke-linecap="round" fill-rule="evenodd" />
  <path d="M 173 37.5 L 171 60.5 L 184.5 49 L 173 37.5 Z" fill="#60df20" stroke="#60df20" stroke-width="1.25" stroke-linejoin="round" stroke-linecap="round" fill-rule="evenodd" />
  <path d="M 34 96.5 L 38.5 102 L 37.5 106 L 41 111.5 L 48.5 98 L 34 96.5 Z" fill="#6520df" stroke="#6520df" stroke-width="1.25" stroke-linejoin="round" stroke-linecap="round" fill-rule="evenodd" />
  <path d="M 121 128.5 L 125 138.5 L 137.5 133 L 121 128.5 Z" fill="#2087df" stroke="#2087df" stroke-width="1.25" stroke-linejoin="round" stroke-linecap="round" fill-rule="evenodd" />
  <path d="M 29 96.5 L 32.5 110 L 34 110.5 L 38.5 102 L 29 96.5 Z" fill="#27df20" stroke="#27df20" stroke-width="1.25" stroke-linejoin="round" stroke-linecap="round" fill-rule="evenodd" />
  <path d="M 163 132.5 L 169 143.5 L 172.5 134 L 163 132.5 Z" fill="#df20ad" stroke="#df20ad" stroke-width="1.25" stroke-linejoin="round" stroke-linecap="round" fill-rule="evenodd" />
  <path d="M 210 63.5 L 210 68.5 L 219.5 65 L 219 63.5 L 210 63.5 Z" fill="#20df52" stroke="#20df52" stroke-width="1.25" stroke-linejoin="round" stroke-linecap="round" fill-rule="evenodd" />
</svg>