<?xml version="1.0" encoding="UTF-8"?>
<svg xmlns="http://www.w3.org/2000/svg" width="256" height="256" viewBox="0 0 256 256">
  <path d="M 255.5 0 L 255 255.5 L -0.5 255 L 0 -0.5 L 255.5 0 Z" fill="#ffffff" stroke="#ffffff" stroke-width="1.25" stroke-linejoin="round" stroke-linecap="round" fill-rule="evenodd" />
  <path d="M 139 25.5 L 130 29.5 L 124.5 35 L 120.5 44 L 120.5 53 L 124.5 62 L 130 67.5 L 139 71.5 L 148 71.5 L 157 67.5 L 162.5 62 L 166.5 53 L 166.5 44 L 162.5 35 L 157 29.5 L 148 25.5 L 139 25.5 Z" fill="#ffffff" stroke="#ffffff" stroke-width="1.25" stroke-linejoin="round" stroke-linecap="round" fill-rule="evenodd" />
  <path d="M 215 25.5 L 222 50.5 L 239.5 37 L 215 25.5 Z" fill="#ffffff" stroke="#ffffff" stroke-width="1.25" stroke-linejoin="round" stroke-linecap="round" fill-rule="evenodd" />
  <path d="M 171 37.5 L 169 63.5 L 184.5 51 L 171 37.5 Z" fill="#ffffff" stroke="#ffffff" stroke-width="1.25" stroke-linejoin="round" stroke-linecap="round" fill-rule="evenodd" />
  <path d="M 104 55.5 L 99 57.5 L 93.5 63 L 91.5 75 L 93.5 80 L 99 85.5 L 111 87.5 L 116 85.5 L 121.5 80 L 123.5 68 L 121.5 63 L 116 57.5 L 104 55.5 Z" fill="#ffffff" stroke="#ffffff" stroke-width="1.25" stroke-linejoin="round" stroke-linecap="round" fill-rule="evenodd" />
  <path d="M 184 62.5 L 174.5 68 L 170 80.5 L 163 81.5 L 150.5 90 L 144.5 103 L 144.5 112 L 148.5 122 L 154 128.5 L 162.5 133 L 169 144.5 L 173 134.5 L 186 130.5 L 194.5 122 L 198.5 112 L 198.5 103 L 195.5 95 L 200.5 91 L 204.5 83 L 204.5 76 L 200.5 68 L 194 63.5 L 184 62.5 Z" fill="#ffffff" stroke="#ffffff" stroke-width="1.25" stroke-linejoin="round" stroke-linecap="round" fill-rule="evenodd" />
  <path d="M 209 62.5 L 208.5 86 L 220 86.5 L 220.5 63 L 209 62.5 Z" fill="#ffffff" stroke="#ffffff" stroke-width="1.25" stroke-linejoin="round" stroke-linecap="round" fill-rule="evenodd" />
  <path d="M 29 95.5 L 33.5 111 L 35 111.5 L 38 106.5 L 42 113.5 L 50.5 97 L 34 95.5 L 33 97.5 L 29 95.5 Z" fill="#ffffff" stroke="#ffffff" stroke-width="1.25" stroke-linejoin="round" stroke-linecap="round" fill-rule="evenodd" />
  <path d="M 108 137.5 L 100.5 143 L 99.5 151 L 105 158.5 L 113 159.5 L 120.5 154 L 121.5 146 L 116 138.5 L 108 137.5 Z" fill="#ffffff" stroke="#ffffff" stroke-width="1.25" stroke-linejoin="round" stroke-linecap="round" fill-rule="evenodd" />
  <path d="M 55 173.5 L 54.5 200 L 78 200.5 L 78.5 174 L 55 173.5 Z" fill="#ffffff" stroke="#ffffff" stroke-width="1.25" stroke-linejoin="round" stroke-linecap="round" fill-rule="evenodd" />
  <path d="M 219 195.5 L 209 200.5 L 204.5 206 L 201.5 213 L 202.5 225 L 206.5 232 L 215 237.5 L 222 246.5 L 229 249.5 L 239 248.5 L 243 246.5 L 250.5 237 L 250.5 224 L 245.5 217 L 242.5 206 L 238 200.5 L 228 195.5 L 219 195.5 Z" fill="#ffffff" stroke="#ffffff" stroke-width="1.25" stroke-linejoin="round" stroke-linecap="round" fill-rule="evenodd" />
  <path d="M 154 202.5 L 146.5 208 L 145.5 216 L 151 223.5 L 159 224.5 L 166.5 219 L 167.5 211 L 162 203.5 L 154 202.5 Z" fill="#ffffff" stroke="#ffffff" stroke-width="1.25" stroke-linejoin="round" stroke-linecap="round" fill-rule="evenodd" />
  <path d="M 106 56.5 L 100 58.5 L 94.5 64 L 92.5 73 L 94.5 79 L 100 84.5 L 109 86.5 L 115 84.5 L 120.5 79 L 122.5 70 L 120.5 64 L 115 58.5 L 106 56.5 Z" fill="#ce2c8f" stroke="#ce2c8f" stroke-width="1.25" stroke-linejoin="round" stroke-linecap="round" fill-rule="evenodd" />
  <path d="M 105 58.5 L 97.5 63 L 94.5 69 L 94.5 74 L 99 81.5 L 105 84.5 L 110 84.5 L 117.5 80 L 120.5 74 L 120.5 69 L 116 61.5 L 110 58.5 L 105 58.5 Z" fill="#ce2c8f" stroke="#ce2c8f" stroke-width="1.25" stroke-linejoin="round" stroke-linecap="round" fill-rule="evenodd" />
  <path d="M 185 70.5 L 179.5 75 L 178.5 81 L 180.5 81 L 180.5 77 L 183 73.5 L 190 72.5 L 194.5 77 L 194.5 82 L 189.5 87 L 192 87.5 L 196.5 82 L 196.5 77 L 192 71.5 L 185 70.5 Z" fill="#ce2c8f" stroke="#ce2c8f" stroke-width="1.25" stroke-linejoin="round" stroke-linecap="round" fill-rule="evenodd" />
  <path d="M 55 173.5 L 55 182.5 L 58 177.5 L 64 174.5 L 72 175.5 L 78.5 182 L 78 173.5 L 55 173.5 Z" fill="#ce2c8f" stroke="#ce2c8f" stroke-width="1.25" stroke-linejoin="round" stroke-linecap="round" fill-rule="evenodd" />
  <path d="M 55 191.5 L 55 200.5 L 78.5 200 L 78 191.5 L 75 196.5 L 69 199.5 L 61 198.5 L 55 191.5 Z" fill="#ce2c8f" stroke="#ce2c8f" stroke-width="1.25" stroke-linejoin="round" stroke-linecap="round" fill-rule="evenodd" />
  <path d="M 168 80.5 L 159 83.5 L 149.5 92 L 145.5 100 L 144.5 111 L 147.5 120 L 156 129.5 L 164 133.5 L 175 134.5 L 184 131.5 L 193.5 123 L 197.5 115 L 198.5 104 L 195.5 95 L 187 85.5 L 179 81.5 L 168 80.5 Z" fill="#c34627" stroke="#c34627" stroke-width="1.25" stroke-linejoin="round" stroke-linecap="round" fill-rule="evenodd" />
  <path d="M 170 82.5 L 158 86.5 L 150.5 94 L 146.5 109 L 150.5 121 L 158 128.5 L 173 132.5 L 185 128.5 L 192.5 121 L 196.5 106 L 192.5 94 L 185 86.5 L 170 82.5 Z" fill="#c34627" stroke="#c34627" stroke-width="1.25" stroke-linejoin="round" stroke-linecap="round" fill-rule="evenodd" />
  <path d="M 170 82.5 L 158 86.5 L 150.5 94 L 146.5 109 L 150.5 121 L 158 128.5 L 173 132.5 L 185 128.5 L 192.5 121 L 196.5 106 L 192.5 94 L 185 86.5 L 170 82.5 Z" fill="#be5427" stroke="#be5427" stroke-width="1.25" stroke-linejoin="round" stroke-linecap="round" fill-rule="evenodd" />
  <path d="M 166 85.5 L 159 88.5 L 152.5 95 L 149.5 102 L 149.5 113 L 152.5 120 L 159 126.5 L 166 129.5 L 177 129.5 L 184 126.5 L 190.5 120 L 193.5 113 L 193.5 102 L 190.5 95 L 184 88.5 L 177 85.5 L 166 85.5 Z" fill="#be5427" stroke="#be5427" stroke-width="1.25" stroke-linejoin="round" stroke-linecap="round" fill-rule="evenodd" />
  <path d="M 171 138.5 L 171 140.5" fill="#be5427" stroke="#be5427" stroke-width="1.25" stroke-linejoin="round" stroke-linecap="round" fill-rule="evenodd" />
  <path d="M 170 140.5 L 170 142.5" fill="#be5427" stroke="#be5427" stroke-width="1.25" stroke-linejoin="round" stroke-linecap="round" fill-rule="evenodd" />
  <path d="M 169 142.5 L 169 144.5" fill="#be5427" stroke="#be5427" stroke-width="1.25" stroke-linejoin="round" stroke-linecap="round" fill-rule="evenodd" />
  <path d="M 225 30.5 L 221.5 33 L 219.5 38 L 223 44.5 L 228 45.5 L 233 42.5 L 235.5 38 L 232 32.5 L 225 30.5 Z" fill="#6fd632" stroke="#6fd632" stroke-width="1.25" stroke-linejoin="round" stroke-linecap="round" fill-rule="evenodd" />
  <path d="M 225 33.5 L 222.5 37 L 223.5 41 L 230 42.5 L 232.5 39 L 231.5 35 L 225 33.5 Z" fill="#6fd632" stroke="#6fd632" stroke-width="1.25" stroke-linejoin="round" stroke-linecap="round" fill-rule="evenodd" />
  <path d="M 171 37.5 L 171 41.5 L 173.5 40 L 171 37.5 Z" fill="#6fd632" stroke="#6fd632" stroke-width="1.25" stroke-linejoin="round" stroke-linecap="round" fill-rule="evenodd" />
  <path d="M 169 57.5 L 169 63.5 L 171.5 61 L 169 57.5 Z" fill="#6fd632" stroke="#6fd632" stroke-width="1.25" stroke-linejoin="round" stroke-linecap="round" fill-rule="evenodd" />
  <path d="M 171 106.5 L 172 108.5" fill="#6fd632" stroke="#6fd632" stroke-width="1.25" stroke-linejoin="round" stroke-linecap="round" fill-rule="evenodd" />
  <path d="M 154 202.5 L 146.5 208 L 145.5 216 L 151 223.5 L 159 224.5 L 166.5 219 L 167.5 211 L 162 203.5 L 154 202.5 Z" fill="#6fd632" stroke="#6fd632" stroke-width="1.25" stroke-linejoin="round" stroke-linecap="round" fill-rule="evenodd" />
  <path d="M 154 206.5 L 149.5 211 L 149.5 216 L 154 220.5 L 159 220.5 L 163.5 216 L 163.5 211 L 159 206.5 L 154 206.5 Z" fill="#6fd632" stroke="#6fd632" stroke-width="1.25" stroke-linejoin="round" stroke-linecap="round" fill-rule="evenodd" />
  <path d="M 148 26.5 L 127.5 65 L 132 68.5 L 138.5 60 L 154.5 29 L 148 26.5 Z" fill="#d87c24" stroke="#d87c24" stroke-width="1.25" stroke-linejoin="round" stroke-linecap="round" fill-rule="evenodd" />
  <path d="M 105 58.5 L 97.5 63 L 94.5 69 L 94.5 74 L 99 81.5 L 105 84.5 L 110 84.5 L 117.5 80 L 120.5 74 L 120.5 69 L 116 61.5 L 110 58.5 L 105 58.5 Z" fill="#d02f81" stroke="#d02f81" stroke-width="1.25" stroke-linejoin="round" stroke-linecap="round" fill-rule="evenodd" />
  <path d="M 104 60.5 L 98.5 64 L 96.5 68 L 96.5 75 L 100 80.5 L 104 82.5 L 111 82.5 L 116.5 79 L 118.5 75 L 118.5 68 L 115 62.5 L 111 60.5 L 104 60.5 Z" fill="#d02f81" stroke="#d02f81" stroke-width="1.25" stroke-linejoin="round" stroke-linecap="round" fill-rule="evenodd" />
  <path d="M 184 69.5 L 178.5 74 C 177.20185760299998 83.08699677900007 176.75464400750016 83.23606797749953 179.5 75 L 183 71.5 L 190 70.5 L 196.5 77 L 195.5 84 L 190.5 88 L 193 88.5 L 197.5 83 L 197.5 76 L 191 69.5 L 184 69.5 Z" fill="#d02f81" stroke="#d02f81" stroke-width="1.25" stroke-linejoin="round" stroke-linecap="round" fill-rule="evenodd" />
  <path d="M 64 174.5 L 56.5 179 L 54.5 183 L 54.5 191 L 61 198.5 L 69 199.5 L 76.5 195 L 78.5 191 L 78.5 183 L 72 175.5 L 64 174.5 Z" fill="#d02f81" stroke="#d02f81" stroke-width="1.25" stroke-linejoin="round" stroke-linecap="round" fill-rule="evenodd" />
  <path d="M 63 176.5 L 56.5 182 L 55.5 189 L 61 196.5 L 70 197.5 L 76.5 192 L 77.5 185 L 72 177.5 L 63 176.5 Z" fill="#d02f81" stroke="#d02f81" stroke-width="1.25" stroke-linejoin="round" stroke-linecap="round" fill-rule="evenodd" />
  <path d="M 166 85.5 L 159 88.5 L 152.5 95 L 149.5 102 L 149.5 113 L 152.5 120 L 159 126.5 L 166 129.5 L 177 129.5 L 184 126.5 L 190.5 120 L 193.5 113 L 193.5 102 L 190.5 95 L 184 88.5 L 177 85.5 L 166 85.5 Z" fill="#b76026" stroke="#b76026" stroke-width="1.25" stroke-linejoin="round" stroke-linecap="round" fill-rule="evenodd" />
  <path d="M 167 87.5 L 159 91.5 L 153.5 98 L 151.5 103 L 151.5 112 L 155.5 120 L 162 125.5 L 167 127.5 L 176 127.5 L 184 123.5 L 189.5 117 L 191.5 112 L 191.5 103 L 187.5 95 L 181 89.5 L 176 87.5 L 167 87.5 Z" fill="#b76026" stroke="#b76026" stroke-width="1.25" stroke-linejoin="round" stroke-linecap="round" fill-rule="evenodd" />
  <path d="M 141 25.5 L 123.5 58 L 127 64.5 L 148.5 26 L 141 25.5 Z" fill="#da8e22" stroke="#da8e22" stroke-width="1.25" stroke-linejoin="round" stroke-linecap="round" fill-rule="evenodd" />
  <path d="M 225 33.5 L 222.5 37 L 223.5 41 L 230 42.5 L 232.5 39 L 231.5 35 L 225 33.5 Z" fill="#40d448" stroke="#40d448" stroke-width="1.25" stroke-linejoin="round" stroke-linecap="round" fill-rule="evenodd" />
  <path d="M 172 40.5 L 169.5 44 L 170 46.5 L 175.5 42 L 172 40.5 Z" fill="#40d448" stroke="#40d448" stroke-width="1.25" stroke-linejoin="round" stroke-linecap="round" fill-rule="evenodd" />
  <path d="M 170 54.5 L 168.5 57 L 173 60.5 L 174.5 58 L 170 54.5 Z" fill="#40d448" stroke="#40d448" stroke-width="1.25" stroke-linejoin="round" stroke-linecap="round" fill-rule="evenodd" />
  <path d="M 234 198.5 L 233.5 236 L 235 236.5 L 238.5 234 L 238.5 201 L 234 198.5 Z" fill="#40d448" stroke="#40d448" stroke-width="1.25" stroke-linejoin="round" stroke-linecap="round" fill-rule="evenodd" />
  <path d="M 167 87.5 L 159 91.5 L 153.5 98 L 151.5 103 L 151.5 112 L 155.5 120 L 162 125.5 L 167 127.5 L 176 127.5 L 184 123.5 L 189.5 117 L 191.5 112 L 191.5 103 L 187.5 95 L 181 89.5 L 176 87.5 L 167 87.5 Z" fill="#b16e25" stroke="#b16e25" stroke-width="1.25" stroke-linejoin="round" stroke-linecap="round" fill-rule="evenodd" />
  <path d="M 169 89.5 L 158.5 95 L 155.5 99 L 153.5 110 L 159 120.5 L 163 123.5 L 174 125.5 L 184.5 120 L 187.5 116 L 189.5 105 L 184 94.5 L 180 91.5 L 169 89.5 Z" fill="#b16e25" stroke="#b16e25" stroke-width="1.25" stroke-linejoin="round" stroke-linecap="round" fill-rule="evenodd" />
  <path d="M 155 28.5 L 133.5 68 L 136 70.5 L 139 70.5 L 141.5 67 L 159.5 33 L 155 28.5 Z" fill="#d56b25" stroke="#d56b25" stroke-width="1.25" stroke-linejoin="round" stroke-linecap="round" fill-rule="evenodd" />
  <path d="M 107 70.5 L 108 72.5" fill="#d56b25" stroke="#d56b25" stroke-width="1.25" stroke-linejoin="round" stroke-linecap="round" fill-rule="evenodd" />
  <path d="M 175 42.5 L 169.5 47 L 169.5 54 L 175 58.5 L 179.5 55 L 175 54.5 L 172.5 52 L 172.5 49 L 175 46.5 L 179 46.5 L 181.5 49 L 181 53.5 L 184.5 51 L 178 43.5 L 175 42.5 Z" fill="#3ad05f" stroke="#3ad05f" stroke-width="1.25" stroke-linejoin="round" stroke-linecap="round" fill-rule="evenodd" />
  <path d="M 229 196.5 L 229.5 238 L 231 238.5 L 233.5 237 L 233.5 198 L 229 196.5 Z" fill="#3ad05f" stroke="#3ad05f" stroke-width="1.25" stroke-linejoin="round" stroke-linecap="round" fill-rule="evenodd" />
  <path d="M 169 89.5 L 158.5 95 L 155.5 99 L 153.5 110 L 159 120.5 L 163 123.5 L 174 125.5 L 184.5 120 L 187.5 116 L 189.5 105 L 184 94.5 L 180 91.5 L 169 89.5 Z" fill="#aa7d24" stroke="#aa7d24" stroke-width="1.25" stroke-linejoin="round" stroke-linecap="round" fill-rule="evenodd" />
  <path d="M 168 92.5 L 158.5 99 L 156.5 111 L 163 120.5 L 175 122.5 L 184.5 116 L 186.5 104 L 180 94.5 L 168 92.5 Z" fill="#aa7d24" stroke="#aa7d24" stroke-width="1.25" stroke-linejoin="round" stroke-linecap="round" fill-rule="evenodd" />
  <path d="M 160 32.5 L 139 71.5 L 145 71.5 L 151.5 60 L 163.5 37 L 160 32.5 Z" fill="#d45c27" stroke="#d45c27" stroke-width="1.25" stroke-linejoin="round" stroke-linecap="round" fill-rule="evenodd" />
  <path d="M 106 68.5 L 104.5 73 L 109 74.5 L 110.5 70 L 106 68.5 Z" fill="#d45c27" stroke="#d45c27" stroke-width="1.25" stroke-linejoin="round" stroke-linecap="round" fill-rule="evenodd" />
  <path d="M 107 70.5 L 108 72.5" fill="#d45c27" stroke="#d45c27" stroke-width="1.25" stroke-linejoin="round" stroke-linecap="round" fill-rule="evenodd" />
  <path d="M 139 25.5 L 130 29.5 L 121.5 41 L 120.5 53 L 123 58.5 L 140.5 27 L 139 25.5 Z" fill="#dda221" stroke="#dda221" stroke-width="1.25" stroke-linejoin="round" stroke-linecap="round" fill-rule="evenodd" />
  <path d="M 168 92.5 L 158.5 99 L 156.5 111 L 163 120.5 L 175 122.5 L 184.5 116 L 186.5 104 L 180 94.5 L 168 92.5 Z" fill="#a38d24" stroke="#a38d24" stroke-width="1.25" stroke-linejoin="round" stroke-linecap="round" fill-rule="evenodd" />
  <path d="M 168 95.5 L 161.5 100 L 159.5 104 L 159.5 111 L 164 117.5 L 168 119.5 L 175 119.5 L 181.5 115 L 183.5 111 L 183.5 104 L 179 97.5 L 175 95.5 L 168 95.5 Z" fill="#a38d24" stroke="#a38d24" stroke-width="1.25" stroke-linejoin="round" stroke-linecap="round" fill-rule="evenodd" />
  <path d="M 104 60.5 L 111.5 61" fill="#d23075" stroke="#d23075" stroke-width="1.25" stroke-linejoin="round" stroke-linecap="round" fill-rule="evenodd" />
  <path d="M 102 61.5 L 103.5 62" fill="#d23075" stroke="#d23075" stroke-width="1.25" stroke-linejoin="round" stroke-linecap="round" fill-rule="evenodd" />
  <path d="M 113 61.5 L 111.5 62" fill="#d23075" stroke="#d23075" stroke-width="1.25" stroke-linejoin="round" stroke-linecap="round" fill-rule="evenodd" />
  <path d="M 100 62.5 C 98.62732200375001 66.61803398874996 98.25464400750012 66.24535599249988 101.5 63 L 100 62.5 Z" fill="#d23075" stroke="#d23075" stroke-width="1.25" stroke-linejoin="round" stroke-linecap="round" fill-rule="evenodd" />
  <path d="M 115 62.5 L 113.5 63 C 116.74535599249994 66.24535599249994 116.37267799624996 66.6180339887499 115 62.5 Z" fill="#d23075" stroke="#d23075" stroke-width="1.25" stroke-linejoin="round" stroke-linecap="round" fill-rule="evenodd" />
  <path d="M 98 65.5 L 98 67.5" fill="#d23075" stroke="#d23075" stroke-width="1.25" stroke-linejoin="round" stroke-linecap="round" fill-rule="evenodd" />
  <path d="M 117.5 66 L 117 67.5" fill="#d23075" stroke="#d23075" stroke-width="1.25" stroke-linejoin="round" stroke-linecap="round" fill-rule="evenodd" />
  <path d="M 97 67.5 L 97 75.5" fill="#d23075" stroke="#d23075" stroke-width="1.25" stroke-linejoin="round" stroke-linecap="round" fill-rule="evenodd" />
  <path d="M 118.5 68 L 118 75.5" fill="#d23075" stroke="#d23075" stroke-width="1.25" stroke-linejoin="round" stroke-linecap="round" fill-rule="evenodd" />
  <path d="M 186 67.5 L 177.5 73 L 175.5 80 L 177.5 81 L 177.5 76 L 182 70.5 L 193 70.5 L 197.5 76 L 197.5 83 L 191.5 89 L 194 89.5 L 199.5 81 L 198.5 75 L 194 69.5 L 186 67.5 Z" fill="#d23075" stroke="#d23075" stroke-width="1.25" stroke-linejoin="round" stroke-linecap="round" fill-rule="evenodd" />
  <path d="M 98.5 76 L 98 77.5" fill="#d23075" stroke="#d23075" stroke-width="1.25" stroke-linejoin="round" stroke-linecap="round" fill-rule="evenodd" />
  <path d="M 117 75.5 L 117 77.5" fill="#d23075" stroke="#d23075" stroke-width="1.25" stroke-linejoin="round" stroke-linecap="round" fill-rule="evenodd" />
  <path d="M 99.5 78 L 98.5 79 C 101.83333333333333 81 101.5 81.33333333333333 99.5 78 Z" fill="#d23075" stroke="#d23075" stroke-width="1.25" stroke-linejoin="round" stroke-linecap="round" fill-rule="evenodd" />
  <path d="M 116 77.5 C 113.46092830662484 81.30860754006275 112.96942176266536 81.11834694240079 116.5 79 L 116 77.5 Z" fill="#d23075" stroke="#d23075" stroke-width="1.25" stroke-linejoin="round" stroke-linecap="round" fill-rule="evenodd" />
  <path d="M 103 80.5 L 101.5 81" fill="#d23075" stroke="#d23075" stroke-width="1.25" stroke-linejoin="round" stroke-linecap="round" fill-rule="evenodd" />
  <path d="M 112 80.5 L 113.5 81" fill="#d23075" stroke="#d23075" stroke-width="1.25" stroke-linejoin="round" stroke-linecap="round" fill-rule="evenodd" />
  <path d="M 105 81.5 L 111.5 82" fill="#d23075" stroke="#d23075" stroke-width="1.25" stroke-linejoin="round" stroke-linecap="round" fill-rule="evenodd" />
  <path d="M 63 176.5 L 56.5 182 L 55.5 189 L 61 196.5 L 70 197.5 L 76.5 192 L 77.5 185 L 72 177.5 L 63 176.5 Z" fill="#d23075" stroke="#d23075" stroke-width="1.25" stroke-linejoin="round" stroke-linecap="round" fill-rule="evenodd" />
  <path d="M 65 177.5 L 58.5 182 L 57.5 190 L 62 195.5 L 68 196.5 L 74.5 192 L 75.5 184 L 71 178.5 L 65 177.5 Z" fill="#d23075" stroke="#d23075" stroke-width="1.25" stroke-linejoin="round" stroke-linecap="round" fill-rule="evenodd" />
  <path d="M 175 46.5 L 172.5 49 L 172.5 52 L 175 54.5 L 179 54.5 L 181.5 52 L 181.5 49 L 179 46.5 L 175 46.5 Z" fill="#36cc71" stroke="#36cc71" stroke-width="1.25" stroke-linejoin="round" stroke-linecap="round" fill-rule="evenodd" />
  <path d="M 177 49.5 L 177 51.5" fill="#36cc71" stroke="#36cc71" stroke-width="1.25" stroke-linejoin="round" stroke-linecap="round" fill-rule="evenodd" />
  <path d="M 225 195.5 L 225.5 239 L 228 239.5 L 229.5 238 L 229.5 210 L 228.5 196 L 225 195.5 Z" fill="#36cc71" stroke="#36cc71" stroke-width="1.25" stroke-linejoin="round" stroke-linecap="round" fill-rule="evenodd" />
  <path d="M 220 34.5 L 220 37.5" fill="#92d828" stroke="#92d828" stroke-width="1.25" stroke-linejoin="round" stroke-linecap="round" fill-rule="evenodd" />
  <path d="M 235.5 35 L 235 37.5" fill="#92d828" stroke="#92d828" stroke-width="1.25" stroke-linejoin="round" stroke-linecap="round" fill-rule="evenodd" />
  <path d="M 220 38.5 L 220 41.5" fill="#92d828" stroke="#92d828" stroke-width="1.25" stroke-linejoin="round" stroke-linecap="round" fill-rule="evenodd" />
  <path d="M 235 38.5 L 235 40.5" fill="#92d828" stroke="#92d828" stroke-width="1.25" stroke-linejoin="round" stroke-linecap="round" fill-rule="evenodd" />
  <path d="M 226 45.5 L 227.5 46" fill="#92d828" stroke="#92d828" stroke-width="1.25" stroke-linejoin="round" stroke-linecap="round" fill-rule="evenodd" />
  <path d="M 171 103.5 L 167.5 108 L 172 111.5 L 175.5 107 L 171 103.5 Z" fill="#92d828" stroke="#92d828" stroke-width="1.25" stroke-linejoin="round" stroke-linecap="round" fill-rule="evenodd" />
  <path d="M 171 106.5 L 172 108.5" fill="#92d828" stroke="#92d828" stroke-width="1.25" stroke-linejoin="round" stroke-linecap="round" fill-rule="evenodd" />
  <path d="M 154 206.5 L 149.5 211 L 149.5 216 L 154 220.5 L 159 220.5 L 163.5 216 L 163.5 211 L 159 206.5 L 154 206.5 Z" fill="#92d828" stroke="#92d828" stroke-width="1.25" stroke-linejoin="round" stroke-linecap="round" fill-rule="evenodd" />
  <path d="M 156 212.5 L 157 214.5" fill="#92d828" stroke="#92d828" stroke-width="1.25" stroke-linejoin="round" stroke-linecap="round" fill-rule="evenodd" />
  <path d="M 183 64.5 L 174.5 71 L 172.5 80 L 174.5 80 L 175.5 73 L 181 67.5 L 194 67.5 L 200.5 75 L 200.5 84 L 193.5 92 L 196 92.5 L 202.5 84 L 202.5 75 L 196 66.5 L 192 64.5 L 183 64.5 Z" fill="#d72d54" stroke="#d72d54" stroke-width="1.25" stroke-linejoin="round" stroke-linecap="round" fill-rule="evenodd" />
  <path d="M 164 133.5 L 165 137.5 L 166.5 134 L 164 133.5 Z" fill="#d72d54" stroke="#d72d54" stroke-width="1.25" stroke-linejoin="round" stroke-linecap="round" fill-rule="evenodd" />
  <path d="M 65 179.5 L 59.5 184 L 59.5 190 L 63 193.5 L 68 194.5 L 73.5 190 L 73.5 184 L 70 180.5 L 65 179.5 Z" fill="#d72d54" stroke="#d72d54" stroke-width="1.25" stroke-linejoin="round" stroke-linecap="round" fill-rule="evenodd" />
  <path d="M 64 182.5 L 61.5 185 L 61.5 189 L 64 191.5 L 69 191.5 L 71.5 189 L 71.5 185 L 69 182.5 L 64 182.5 Z" fill="#d72d54" stroke="#d72d54" stroke-width="1.25" stroke-linejoin="round" stroke-linecap="round" fill-rule="evenodd" />
  <path d="M 177 49.5 L 177 51.5" fill="#35c47f" stroke="#35c47f" stroke-width="1.25" stroke-linejoin="round" stroke-linecap="round" fill-rule="evenodd" />
  <path d="M 209 62.5 L 209 64.5 L 220.5 64 L 220 62.5 L 209 62.5 Z" fill="#35c47f" stroke="#35c47f" stroke-width="1.25" stroke-linejoin="round" stroke-linecap="round" fill-rule="evenodd" />
  <path d="M 209 84.5 L 209 86.5 L 220.5 86 L 220 84.5 L 209 84.5 Z" fill="#35c47f" stroke="#35c47f" stroke-width="1.25" stroke-linejoin="round" stroke-linecap="round" fill-rule="evenodd" />
  <path d="M 222 195.5 L 221.5 236 L 222.5 239 L 225 239.5 L 225.5 199 L 224.5 196 L 222 195.5 Z" fill="#35c47f" stroke="#35c47f" stroke-width="1.25" stroke-linejoin="round" stroke-linecap="round" fill-rule="evenodd" />
  <path d="M 213 66.5 L 208.5 69 L 209 71.5 L 212 68.5 L 217 68.5 L 220.5 71 L 220 68.5 L 213 66.5 Z" fill="#34b5ab" stroke="#34b5ab" stroke-width="1.25" stroke-linejoin="round" stroke-linecap="round" fill-rule="evenodd" />
  <path d="M 209 77.5 L 208.5 80 L 213 82.5 L 220.5 80 L 220 77.5 L 217 80.5 L 212 80.5 L 209 77.5 Z" fill="#34b5ab" stroke="#34b5ab" stroke-width="1.25" stroke-linejoin="round" stroke-linecap="round" fill-rule="evenodd" />
  <path d="M 212 198.5 L 210.5 200 L 210.5 235 L 214 237.5 L 214.5 199 L 212 198.5 Z" fill="#34b5ab" stroke="#34b5ab" stroke-width="1.25" stroke-linejoin="round" stroke-linecap="round" fill-rule="evenodd" />
  <path d="M 41 103.5 L 40.5 106 L 43 106.5 L 43.5 104 L 41 103.5 Z" fill="#8135d8" stroke="#8135d8" stroke-width="1.25" stroke-linejoin="round" stroke-linecap="round" fill-rule="evenodd" />
  <path d="M 217 239.5 L 216.5 241 L 222 246.5 L 229 249.5 L 239 248.5 L 246.5 243 L 217 239.5 Z" fill="#8135d8" stroke="#8135d8" stroke-width="1.25" stroke-linejoin="round" stroke-linecap="round" fill-rule="evenodd" />
  <path d="M 104 55.5 L 99 57.5 L 93.5 63 L 91.5 75 L 93.5 80 L 99 85.5 L 111 87.5 L 116 85.5 L 121.5 80 L 123.5 68 L 121.5 63 L 116 57.5 L 104 55.5 Z" fill="#cc299f" stroke="#cc299f" stroke-width="1.25" stroke-linejoin="round" stroke-linecap="round" fill-rule="evenodd" />
  <path d="M 106 56.5 L 100 58.5 L 94.5 64 L 92.5 73 L 94.5 79 L 100 84.5 L 109 86.5 L 115 84.5 L 120.5 79 L 122.5 70 L 120.5 64 L 115 58.5 L 106 56.5 Z" fill="#cc299f" stroke="#cc299f" stroke-width="1.25" stroke-linejoin="round" stroke-linecap="round" fill-rule="evenodd" />
  <path d="M 185 72.5 L 180.5 77 L 180.5 82 L 182.5 82 L 182.5 77 L 185 74.5 L 190 74.5 L 192.5 77 L 192.5 82 L 186.5 85 L 190 86.5 L 194.5 82 L 194.5 77 L 190 72.5 L 185 72.5 Z" fill="#cc299f" stroke="#cc299f" stroke-width="1.25" stroke-linejoin="round" stroke-linecap="round" fill-rule="evenodd" />
  <path d="M 184 62.5 L 174.5 68 L 171.5 73 L 170.5 80 L 172.5 80 L 172.5 75 L 179 66.5 L 183 64.5 L 192 64.5 L 196 66.5 L 202.5 75 L 202.5 84 L 194.5 93 L 196 94.5 L 203.5 86 L 203.5 73 L 196 64.5 L 184 62.5 Z" fill="#d92f40" stroke="#d92f40" stroke-width="1.25" stroke-linejoin="round" stroke-linecap="round" fill-rule="evenodd" />
  <path d="M 64 182.5 L 61.5 185 L 61.5 189 L 64 191.5 L 69 191.5 L 71.5 189 L 71.5 185 L 69 182.5 L 64 182.5 Z" fill="#d92f40" stroke="#d92f40" stroke-width="1.25" stroke-linejoin="round" stroke-linecap="round" fill-rule="evenodd" />
  <path d="M 66 185.5 L 65.5 188 L 67 188.5 L 67.5 186 L 66 185.5 Z" fill="#d92f40" stroke="#d92f40" stroke-width="1.25" stroke-linejoin="round" stroke-linecap="round" fill-rule="evenodd" />
  <path d="M 214 64.5 L 209 66.5 L 209 68.5 L 213 66.5 C 222.91301669547673 68.48260333909535 222.74476965982888 69.20872212452323 214 64.5 Z" fill="#35ba9b" stroke="#35ba9b" stroke-width="1.25" stroke-linejoin="round" stroke-linecap="round" fill-rule="evenodd" />
  <path d="M 209 80.5 L 209 82.5 L 214 84.5 L 220.5 82 L 219 80.5 L 213 82.5 L 209 80.5 Z" fill="#35ba9b" stroke="#35ba9b" stroke-width="1.25" stroke-linejoin="round" stroke-linecap="round" fill-rule="evenodd" />
  <path d="M 216 196.5 L 213.5 198 L 214.5 237 L 218 238.5 L 218.5 212 L 217.5 197 L 216 196.5 Z" fill="#35ba9b" stroke="#35ba9b" stroke-width="1.25" stroke-linejoin="round" stroke-linecap="round" fill-rule="evenodd" />
  <path d="M 211 63.5 L 208.5 65 L 209 66.5 L 214 64.5 L 220.5 66 L 218 63.5 L 211 63.5 Z" fill="#34bf8d" stroke="#34bf8d" stroke-width="1.25" stroke-linejoin="round" stroke-linecap="round" fill-rule="evenodd" />
  <path d="M 209 82.5 L 208.5 84 L 211 85.5 L 220.5 84 L 220 82.5 L 215 84.5 L 209 82.5 Z" fill="#34bf8d" stroke="#34bf8d" stroke-width="1.25" stroke-linejoin="round" stroke-linecap="round" fill-rule="evenodd" />
  <path d="M 219 195.5 L 217.5 197 L 218.5 239 L 222 239.5 L 221.5 196 L 219 195.5 Z" fill="#34bf8d" stroke="#34bf8d" stroke-width="1.25" stroke-linejoin="round" stroke-linecap="round" fill-rule="evenodd" />
  <path d="M 168 95.5 L 161.5 100 L 159.5 104 L 159.5 111 L 164 117.5 L 168 119.5 L 175 119.5 L 181.5 115 L 183.5 111 L 183.5 104 L 179 97.5 L 175 95.5 L 168 95.5 Z" fill="#9b9e23" stroke="#9b9e23" stroke-width="1.25" stroke-linejoin="round" stroke-linecap="round" fill-rule="evenodd" />
  <path d="M 168 98.5 L 162.5 104 L 162.5 111 L 168 116.5 L 175 116.5 L 180.5 111 L 180.5 104 L 175 98.5 L 168 98.5 Z" fill="#9b9e23" stroke="#9b9e23" stroke-width="1.25" stroke-linejoin="round" stroke-linecap="round" fill-rule="evenodd" />
  <path d="M 183 66.5 L 175.5 73 C 173.91785836011422 84.0749914792004 173.2593702756533 82.00409417009848 181 69.5 L 186 67.5 L 194 69.5 L 199.5 78 L 197.5 86 L 192.5 90 L 194 91.5 L 200.5 84 L 200.5 75 L 192 66.5 L 183 66.5 Z" fill="#d52a65" stroke="#d52a65" stroke-width="1.25" stroke-linejoin="round" stroke-linecap="round" fill-rule="evenodd" />
  <path d="M 65 177.5 L 58.5 182 L 57.5 190 L 62 195.5 L 68 196.5 L 74.5 192 L 75.5 184 L 71 178.5 L 65 177.5 Z" fill="#d52a65" stroke="#d52a65" stroke-width="1.25" stroke-linejoin="round" stroke-linecap="round" fill-rule="evenodd" />
  <path d="M 65 179.5 L 59.5 184 L 59.5 190 L 63 193.5 L 68 194.5 L 73.5 190 L 73.5 184 L 70 180.5 L 65 179.5 Z" fill="#d52a65" stroke="#d52a65" stroke-width="1.25" stroke-linejoin="round" stroke-linecap="round" fill-rule="evenodd" />
  <path d="M 40 101.5 L 38.5 107 L 44 108.5 L 45.5 103 L 40 101.5 Z" fill="#6b3ada" stroke="#6b3ada" stroke-width="1.25" stroke-linejoin="round" stroke-linecap="round" fill-rule="evenodd" />
  <path d="M 41 103.5 L 40.5 106 L 43 106.5 L 43.5 104 L 41 103.5 Z" fill="#6b3ada" stroke="#6b3ada" stroke-width="1.25" stroke-linejoin="round" stroke-linecap="round" fill-rule="evenodd" />
  <path d="M 240 232.5 L 231 238.5 C 217.14709370647952 241.69682452927395 222.2899895155295 239.75444327950328 247 242.5 L 251.5 234 L 240 232.5 Z" fill="#6b3ada" stroke="#6b3ada" stroke-width="1.25" stroke-linejoin="round" stroke-linecap="round" fill-rule="evenodd" />
  <path d="M 216 238.5 L 218.5 239" fill="#6b3ada" stroke="#6b3ada" stroke-width="1.25" stroke-linejoin="round" stroke-linecap="round" fill-rule="evenodd" />
  <path d="M 163 37.5 L 146 71.5 L 152.5 69 L 159.5 56 L 165.5 44 L 163 37.5 Z" fill="#d14d27" stroke="#d14d27" stroke-width="1.25" stroke-linejoin="round" stroke-linecap="round" fill-rule="evenodd" />
  <path d="M 187 75.5 L 183.5 80 L 188 83.5 L 191.5 79 L 187 75.5 Z" fill="#c424bf" stroke="#c424bf" stroke-width="1.25" stroke-linejoin="round" stroke-linecap="round" fill-rule="evenodd" />
  <path d="M 187 78.5 L 188 80.5" fill="#c424bf" stroke="#c424bf" stroke-width="1.25" stroke-linejoin="round" stroke-linecap="round" fill-rule="evenodd" />
  <path d="M 108 137.5 L 108.5 159 L 113 159.5 L 114.5 158 L 113.5 138 L 108 137.5 Z" fill="#c424bf" stroke="#c424bf" stroke-width="1.25" stroke-linejoin="round" stroke-linecap="round" fill-rule="evenodd" />
  <path d="M 214 69.5 L 209.5 75 L 215 79.5 L 219.5 74 L 214 69.5 Z" fill="#31adca" stroke="#31adca" stroke-width="1.25" stroke-linejoin="round" stroke-linecap="round" fill-rule="evenodd" />
  <path d="M 214 71.5 L 211.5 75 L 215 77.5 L 217.5 74 L 214 71.5 Z" fill="#31adca" stroke="#31adca" stroke-width="1.25" stroke-linejoin="round" stroke-linecap="round" fill-rule="evenodd" />
  <path d="M 34 99.5 L 30.5 102 L 32 105.5 L 34 101.5 L 36.5 103 L 35 106.5 L 32.5 106 L 35 108.5 L 37.5 107 L 38.5 102 L 34 99.5 Z" fill="#31adca" stroke="#31adca" stroke-width="1.25" stroke-linejoin="round" stroke-linecap="round" fill-rule="evenodd" />
  <path d="M 207 202.5 L 203.5 208 L 203.5 227 L 207 232.5 L 207 202.5 Z" fill="#31adca" stroke="#31adca" stroke-width="1.25" stroke-linejoin="round" stroke-linecap="round" fill-rule="evenodd" />
  <path d="M 212 68.5 L 208.5 72 L 208.5 77 L 212 80.5 L 217 80.5 L 220.5 77 L 220.5 72 L 217 68.5 L 212 68.5 Z" fill="#31b2bc" stroke="#31b2bc" stroke-width="1.25" stroke-linejoin="round" stroke-linecap="round" fill-rule="evenodd" />
  <path d="M 214 69.5 L 209.5 75 L 215 79.5 L 219.5 74 L 214 69.5 Z" fill="#31b2bc" stroke="#31b2bc" stroke-width="1.25" stroke-linejoin="round" stroke-linecap="round" fill-rule="evenodd" />
  <path d="M 34 101.5 L 32.5 105 L 35 106.5 L 36.5 103 L 34 101.5 Z" fill="#31b2bc" stroke="#31b2bc" stroke-width="1.25" stroke-linejoin="round" stroke-linecap="round" fill-rule="evenodd" />
  <path d="M 209 200.5 L 207.5 202 L 207.5 233 L 210 234.5 L 210.5 201 L 209 200.5 Z" fill="#31b2bc" stroke="#31b2bc" stroke-width="1.25" stroke-linejoin="round" stroke-linecap="round" fill-rule="evenodd" />
  <path d="M 166 43.5 C 151.19568418630342 73.10863162739312 145.39477805489668 75.50412258823948 162.5 62 L 166.5 53 L 166 43.5 Z" fill="#ce3e27" stroke="#ce3e27" stroke-width="1.25" stroke-linejoin="round" stroke-linecap="round" fill-rule="evenodd" />
  <path d="M 66 185.5 L 65.5 188 L 67 188.5 L 67.5 186 L 66 185.5 Z" fill="#ce3e27" stroke="#ce3e27" stroke-width="1.25" stroke-linejoin="round" stroke-linecap="round" fill-rule="evenodd" />
  <path d="M 239 201.5 C 239 237.90328160454106 233.75138926220907 242.78600361301474 245.5 222 L 245.5 213 L 239 201.5 Z" fill="#35da32" stroke="#35da32" stroke-width="1.25" stroke-linejoin="round" stroke-linecap="round" fill-rule="evenodd" />
  <path d="M 185 74.5 L 182.5 77 L 182.5 82 L 185 84.5 L 190 84.5 L 192.5 82 L 192.5 77 L 190 74.5 L 185 74.5 Z" fill="#d223b3" stroke="#d223b3" stroke-width="1.25" stroke-linejoin="round" stroke-linecap="round" fill-rule="evenodd" />
  <path d="M 187 75.5 L 183.5 80 L 188 83.5 L 191.5 79 L 187 75.5 Z" fill="#d223b3" stroke="#d223b3" stroke-width="1.25" stroke-linejoin="round" stroke-linecap="round" fill-rule="evenodd" />
  <path d="M 114 138.5 L 114.5 158 L 116 158.5 L 120.5 154 L 121.5 146 L 120.5 143 L 114 138.5 Z" fill="#d223b3" stroke="#d223b3" stroke-width="1.25" stroke-linejoin="round" stroke-linecap="round" fill-rule="evenodd" />
  <path d="M 168 98.5 L 162.5 104 L 162.5 111 L 168 116.5 L 175 116.5 L 180.5 111 L 180.5 104 L 175 98.5 L 168 98.5 Z" fill="#93b022" stroke="#93b022" stroke-width="1.25" stroke-linejoin="round" stroke-linecap="round" fill-rule="evenodd" />
  <path d="M 169 101.5 L 165.5 105 L 166.5 112 L 169 113.5 L 176 112.5 L 177.5 110 L 176.5 103 L 169 101.5 Z" fill="#93b022" stroke="#93b022" stroke-width="1.25" stroke-linejoin="round" stroke-linecap="round" fill-rule="evenodd" />
  <path d="M 222 28.5 L 217.5 34 C 219.42617359329725 43.63086796648628 218.80446152778123 44.042000138844045 219.5 35 L 225.5 30 L 222 28.5 Z" fill="#91c729" stroke="#91c729" stroke-width="1.25" stroke-linejoin="round" stroke-linecap="round" fill-rule="evenodd" />
  <path d="M 236 34.5 L 235.5 39 L 237 39.5 L 238.5 36 L 236 34.5 Z" fill="#91c729" stroke="#91c729" stroke-width="1.25" stroke-linejoin="round" stroke-linecap="round" fill-rule="evenodd" />
  <path d="M 220.5 42 L 219.5 45 L 222 47.5 L 224 48.5 L 226.5 47 L 220.5 42 Z" fill="#91c729" stroke="#91c729" stroke-width="1.25" stroke-linejoin="round" stroke-linecap="round" fill-rule="evenodd" />
  <path d="M 169 101.5 L 165.5 105 L 166.5 112 L 169 113.5 L 176 112.5 L 177.5 110 L 176.5 103 L 169 101.5 Z" fill="#91c729" stroke="#91c729" stroke-width="1.25" stroke-linejoin="round" stroke-linecap="round" fill-rule="evenodd" />
  <path d="M 171 103.5 L 167.5 108 L 172 111.5 L 175.5 107 L 171 103.5 Z" fill="#91c729" stroke="#91c729" stroke-width="1.25" stroke-linejoin="round" stroke-linecap="round" fill-rule="evenodd" />
  <path d="M 187 78.5 L 188 80.5" fill="#b026c9" stroke="#b026c9" stroke-width="1.25" stroke-linejoin="round" stroke-linecap="round" fill-rule="evenodd" />
  <path d="M 105 138.5 L 100.5 143 L 99.5 151 L 100.5 154 L 108 159.5 L 107.5 139 L 105 138.5 Z" fill="#b026c9" stroke="#b026c9" stroke-width="1.25" stroke-linejoin="round" stroke-linecap="round" fill-rule="evenodd" />
  <path d="M 40 99.5 L 46.5 105 L 47.5 103 L 46 100.5 L 40 99.5 Z" fill="#4e43db" stroke="#4e43db" stroke-width="1.25" stroke-linejoin="round" stroke-linecap="round" fill-rule="evenodd" />
  <path d="M 41 108.5 L 40 110.5 C 45.618033988749886 108.62732200375004 46.06524758424986 109.22360679774998 41 108.5 Z" fill="#4e43db" stroke="#4e43db" stroke-width="1.25" stroke-linejoin="round" stroke-linecap="round" fill-rule="evenodd" />
  <path d="M 246 217.5 L 244.5 225 L 240.5 232 L 251 233.5 L 251.5 227 L 246 217.5 Z" fill="#4e43db" stroke="#4e43db" stroke-width="1.25" stroke-linejoin="round" stroke-linecap="round" fill-rule="evenodd" />
  <path d="M 104 61.5 L 97.5 68 L 97.5 75 L 104 81.5 L 111 81.5 L 117.5 75 L 117.5 68 L 111 61.5 L 104 61.5 Z" fill="#d2436c" stroke="#d2436c" stroke-width="1.25" stroke-linejoin="round" stroke-linecap="round" fill-rule="evenodd" />
  <path d="M 104 63.5 L 99.5 68 L 99.5 75 L 104 79.5 L 111 79.5 L 115.5 75 L 115.5 68 L 111 63.5 L 104 63.5 Z" fill="#d2436c" stroke="#d2436c" stroke-width="1.25" stroke-linejoin="round" stroke-linecap="round" fill-rule="evenodd" />
  <path d="M 214 71.5 L 211.5 75 L 215 77.5 L 217.5 74 L 214 71.5 Z" fill="#2da2d6" stroke="#2da2d6" stroke-width="1.25" stroke-linejoin="round" stroke-linecap="round" fill-rule="evenodd" />
  <path d="M 32 96.5 L 29.5 98 L 31 101.5 L 35 99.5 L 39.5 103 L 40.5 101 L 39 99.5 L 32 96.5 Z" fill="#2da2d6" stroke="#2da2d6" stroke-width="1.25" stroke-linejoin="round" stroke-linecap="round" fill-rule="evenodd" />
  <path d="M 36 107.5 L 33.5 109 L 34 111.5 L 36 107.5 Z" fill="#2da2d6" stroke="#2da2d6" stroke-width="1.25" stroke-linejoin="round" stroke-linecap="round" fill-rule="evenodd" />
  <path d="M 203 209.5 L 201.5 213 C 203.63544117663156 230.79534313859622 203 229.69655943733878 203 209.5 Z" fill="#2da2d6" stroke="#2da2d6" stroke-width="1.25" stroke-linejoin="round" stroke-linecap="round" fill-rule="evenodd" />
  <path d="M 106 64.5 L 101.5 68 L 100.5 73 L 104 77.5 L 109 78.5 L 113.5 75 L 114.5 70 L 111 65.5 L 106 64.5 Z" fill="#d85051" stroke="#d85051" stroke-width="1.25" stroke-linejoin="round" stroke-linecap="round" fill-rule="evenodd" />
  <path d="M 106 66.5 L 103.5 68 L 102.5 73 L 104 75.5 L 109 76.5 L 111.5 75 L 112.5 70 L 111 67.5 L 106 66.5 Z" fill="#d85051" stroke="#d85051" stroke-width="1.25" stroke-linejoin="round" stroke-linecap="round" fill-rule="evenodd" />
  <path d="M 167 134.5 L 165.5 137 L 167 140.5 L 169.5 136 L 167 134.5 Z" fill="#d85051" stroke="#d85051" stroke-width="1.25" stroke-linejoin="round" stroke-linecap="round" fill-rule="evenodd" />
  <path d="M 106 66.5 L 103.5 68 L 102.5 73 L 104 75.5 L 109 76.5 L 111.5 75 L 112.5 70 L 111 67.5 L 106 66.5 Z" fill="#d95b43" stroke="#d95b43" stroke-width="1.25" stroke-linejoin="round" stroke-linecap="round" fill-rule="evenodd" />
  <path d="M 106 68.5 L 104.5 73 L 109 74.5 L 110.5 70 L 106 68.5 Z" fill="#d95b43" stroke="#d95b43" stroke-width="1.25" stroke-linejoin="round" stroke-linecap="round" fill-rule="evenodd" />
  <path d="M 170 134.5 L 166.5 141 L 168 142.5 L 172.5 136 L 170 134.5 Z" fill="#d95b43" stroke="#d95b43" stroke-width="1.25" stroke-linejoin="round" stroke-linecap="round" fill-rule="evenodd" />
  <path d="M 104 63.5 L 99.5 68 L 99.5 75 L 104 79.5 L 111 79.5 L 115.5 75 L 115.5 68 L 111 63.5 L 104 63.5 Z" fill="#d44a5e" stroke="#d44a5e" stroke-width="1.25" stroke-linejoin="round" stroke-linecap="round" fill-rule="evenodd" />
  <path d="M 106 64.5 L 101.5 68 L 100.5 73 L 104 77.5 L 109 78.5 L 113.5 75 L 114.5 70 L 111 65.5 L 106 64.5 Z" fill="#d44a5e" stroke="#d44a5e" stroke-width="1.25" stroke-linejoin="round" stroke-linecap="round" fill-rule="evenodd" />
  <path d="M 215 25.5 L 217 34.5 L 221.5 29 L 215 25.5 Z" fill="#becb29" stroke="#becb29" stroke-width="1.25" stroke-linejoin="round" stroke-linecap="round" fill-rule="evenodd" />
  <path d="M 239 35.5 L 239 37.5" fill="#becb29" stroke="#becb29" stroke-width="1.25" stroke-linejoin="round" stroke-linecap="round" fill-rule="evenodd" />
  <path d="M 221 46.5 L 222 50.5 L 223.5 48 L 221 46.5 Z" fill="#becb29" stroke="#becb29" stroke-width="1.25" stroke-linejoin="round" stroke-linecap="round" fill-rule="evenodd" />
  <path d="M 156 212.5 L 157 214.5" fill="#becb29" stroke="#becb29" stroke-width="1.25" stroke-linejoin="round" stroke-linecap="round" fill-rule="evenodd" />
  <path d="M 40 96.5 L 37 99.5 L 44 99.5 L 47 102.5 L 48.5 101 L 46 97.5 L 40 96.5 Z" fill="#3f54d1" stroke="#3f54d1" stroke-width="1.25" stroke-linejoin="round" stroke-linecap="round" fill-rule="evenodd" />
  <path d="M 41 110.5 L 40.5 113 L 42 113.5 L 43.5 111 L 41 110.5 Z" fill="#3f54d1" stroke="#3f54d1" stroke-width="1.25" stroke-linejoin="round" stroke-linecap="round" fill-rule="evenodd" />
  <path d="M 34 95.5 L 35 98.5 C 45.19258240356713 95.10247253214429 45.130683957508374 96.15474611514755 34 95.5 Z" fill="#2c67ce" stroke="#2c67ce" stroke-width="1.25" stroke-linejoin="round" stroke-linecap="round" fill-rule="evenodd" />
  <path d="M 31 96.5 L 29.5 97" fill="#2c67ce" stroke="#2c67ce" stroke-width="1.25" stroke-linejoin="round" stroke-linecap="round" fill-rule="evenodd" />
  <path d="M 45 96.5 L 48 99.5 L 50.5 97 L 45 96.5 Z" fill="#2c67ce" stroke="#2c67ce" stroke-width="1.25" stroke-linejoin="round" stroke-linecap="round" fill-rule="evenodd" />
</svg>